<svg width="24" height="24" viewBox="0 0 24 24" fill="none" xmlns="http://www.w3.org/2000/svg">
<g id="UI icon/home/filled" clip-path="url(#clip0_423_61322)">
<path id="Subtract" d="M2.49138 8.54873C1.70121 9.25989 1.25 10.273 1.25 11.3361V19C1.25 21.0711 2.92893 22.75 5 22.75H19C21.0711 22.75 22.75 21.0711 22.75 19V11.3361C22.75 10.273 22.2988 9.25989 21.5086 8.54873L14.5086 2.24873C13.0825 0.965204 10.9175 0.965206 9.49138 2.24873L2.49138 8.54873ZM9.75 15C9.75 14.3096 10.3096 13.75 11 13.75H13C13.6904 13.75 14.25 14.3096 14.25 15V19C14.25 19.1381 14.1381 19.25 14 19.25H10C9.86193 19.25 9.75 19.1381 9.75 19V15Z" stroke="#1A1A1A" stroke-width="1.5"/>
</g>
<defs>
<clipPath id="clip0_423_61322">
<rect width="24" height="24" fill="white"/>
</clipPath>
</defs>
</svg>
