<svg width="24" height="24" viewBox="0 0 24 24" fill="none" xmlns="http://www.w3.org/2000/svg">
<g id="Frame 1171275021">
<path id="Vector" d="M11.6064 12.5C12.9872 12.5 14.1064 11.3807 14.1064 10C14.1064 8.61929 12.9872 7.5 11.6064 7.5C10.2257 7.5 9.10645 8.61929 9.10645 10C9.10645 11.3807 10.2257 12.5 11.6064 12.5Z" stroke="#1A1A1A" stroke-width="1.2" stroke-linecap="round" stroke-linejoin="round"/>
<path id="Vector_2" d="M18.8757 7.1987C19.7314 7.085 20.3329 6.29915 20.2192 5.44345C20.1055 4.58776 19.3196 3.98626 18.4639 4.09997C17.6082 4.21367 17.0067 4.99952 17.1204 5.85522C17.2341 6.71091 18.02 7.31241 18.8757 7.1987Z" stroke="#1A1A1A" stroke-width="1.2" stroke-linecap="round" stroke-linejoin="round"/>
<path id="Vector_3" d="M5.2209 6.78694C6.07659 6.67323 6.67809 5.88738 6.56439 5.03169C6.45068 4.17599 5.66483 3.57449 4.80913 3.6882C3.95344 3.8019 3.35194 4.58776 3.46565 5.44345C3.57935 6.29914 4.36521 6.90064 5.2209 6.78694Z" stroke="#1A1A1A" stroke-width="1.2" stroke-linecap="round" stroke-linejoin="round"/>
<path id="Vector_4" d="M4.80928 20.1507C5.66497 20.037 6.26647 19.2512 6.15277 18.3955C6.03906 17.5398 5.25321 16.9383 4.39751 17.052C3.54182 17.1657 2.94032 17.9516 3.05403 18.8073C3.16773 19.6629 3.95359 20.2644 4.80928 20.1507Z" stroke="#1A1A1A" stroke-width="1.2" stroke-linecap="round" stroke-linejoin="round"/>
<path id="Vector_5" d="M18.4641 20.5625C19.3198 20.4488 19.9213 19.6629 19.8076 18.8073C19.6938 17.9516 18.908 17.3501 18.0523 17.4638C17.1966 17.5775 16.5951 18.3633 16.7088 19.219C16.8225 20.0747 17.6084 20.6762 18.4641 20.5625Z" stroke="#1A1A1A" stroke-width="1.2" stroke-linecap="round" stroke-linejoin="round"/>
<path id="Vector_6" d="M15.6064 16.5C15.6064 15.4391 15.185 14.4217 14.4349 13.6716C13.6847 12.9214 12.6673 12.5 11.6064 12.5C10.5456 12.5 9.52816 12.9214 8.77802 13.6716C8.02787 14.4217 7.60645 15.4391 7.60645 16.5" stroke="#1A1A1A" stroke-width="1.2" stroke-linecap="round" stroke-linejoin="round"/>
<circle id="Ellipse 1094" cx="11.6063" cy="12" r="9.58496" transform="rotate(-7.56919 11.6063 12)" stroke="#191919" stroke-width="1.5" stroke-linecap="round" stroke-dasharray="8 12"/>
</g>
</svg>
