<svg width="19" height="21" viewBox="0 0 19 21" fill="none" xmlns="http://www.w3.org/2000/svg">
<g id="Frame 1171275022">
<path id="Rectangle 12342" d="M3.94496 1.144H15.2679C16.6714 1.144 17.8091 2.28171 17.8091 3.68515V11.4438C17.8091 13.7123 15.9701 15.5512 13.7016 15.5512C13.1071 15.5512 12.5428 15.8135 12.1595 16.2681L10.3774 18.3816C9.86025 18.9948 8.90502 18.9607 8.43297 18.3121L7.01998 16.3706C6.64532 15.8558 6.04702 15.5512 5.41032 15.5512C3.19759 15.5512 1.40381 13.7575 1.40381 11.5447V3.68515C1.40381 2.28171 2.54152 1.144 3.94496 1.144Z" stroke="#1A1A1A" stroke-width="1.5"/>
<path id="Line 4" d="M5.37988 5.24152H13.8325" stroke="#1A1A1A" stroke-linecap="round"/>
<path id="Line 5" d="M5.37988 8.58575H13.8325" stroke="#1A1A1A" stroke-linecap="round"/>
<path id="Line 6" d="M5.37988 11.7389H13.8325" stroke="#1A1A1A" stroke-linecap="round"/>
</g>
</svg>
